<svg width="1440" height="44" viewBox="0 0 1440 44" fill="none" xmlns="http://www.w3.org/2000/svg">
<rect width="1440" height="44" fill="#FC7A1D"/>
<circle opacity="0.5" cx="20" cy="22" r="4" fill="white"/>
<circle opacity="0.5" cx="40" cy="22" r="4" fill="white"/>
<circle opacity="0.5" cx="60" cy="22" r="4" fill="white"/>
<path d="M613.67 19.7464C613.63 19.3454 613.459 19.0339 613.158 18.8118C612.856 18.5897 612.447 18.4787 611.93 18.4787C611.578 18.4787 611.282 18.5284 611.04 18.6278C610.798 18.724 610.612 18.8582 610.483 19.0305C610.357 19.2029 610.294 19.3984 610.294 19.6172C610.288 19.7995 610.326 19.9586 610.408 20.0945C610.495 20.2304 610.612 20.348 610.761 20.4474C610.911 20.5436 611.083 20.6281 611.279 20.701C611.474 20.7706 611.683 20.8303 611.905 20.88L612.82 21.0987C613.264 21.1982 613.672 21.3307 614.043 21.4964C614.414 21.6622 614.735 21.866 615.007 22.108C615.279 22.3499 615.489 22.6349 615.639 22.9631C615.791 23.2912 615.869 23.6674 615.872 24.0916C615.869 24.7147 615.71 25.255 615.395 25.7124C615.083 26.1664 614.633 26.5194 614.043 26.7713C613.456 27.0199 612.748 27.1442 611.92 27.1442C611.098 27.1442 610.382 27.0182 609.772 26.7663C609.166 26.5144 608.692 26.1416 608.35 25.6477C608.012 25.1506 607.835 24.5357 607.818 23.8033H609.901C609.925 24.1446 610.022 24.4297 610.195 24.6584C610.37 24.8838 610.604 25.0545 610.896 25.1705C611.191 25.2831 611.524 25.3395 611.895 25.3395C612.26 25.3395 612.576 25.2865 612.845 25.1804C613.116 25.0743 613.327 24.9268 613.476 24.7379C613.625 24.549 613.7 24.3319 613.7 24.0866C613.7 23.858 613.632 23.6657 613.496 23.5099C613.363 23.3542 613.168 23.2216 612.909 23.1122C612.654 23.0028 612.341 22.9034 611.97 22.8139L610.861 22.5355C610.002 22.3267 609.325 22.0002 608.828 21.5561C608.33 21.112 608.083 20.5137 608.087 19.7614C608.083 19.1449 608.248 18.6063 608.579 18.1456C608.914 17.6849 609.373 17.3253 609.956 17.0668C610.539 16.8082 611.202 16.679 611.945 16.679C612.7 16.679 613.36 16.8082 613.923 17.0668C614.49 17.3253 614.931 17.6849 615.246 18.1456C615.561 18.6063 615.723 19.1399 615.733 19.7464H613.67ZM624.169 16.8182H626.322V23.4304C626.322 24.1728 626.145 24.8224 625.79 25.3793C625.439 25.9361 624.947 26.3703 624.313 26.6818C623.68 26.9901 622.943 27.1442 622.101 27.1442C621.256 27.1442 620.517 26.9901 619.884 26.6818C619.251 26.3703 618.759 25.9361 618.407 25.3793C618.056 24.8224 617.88 24.1728 617.88 23.4304V16.8182H620.033V23.2464C620.033 23.6342 620.117 23.9789 620.286 24.2805C620.459 24.5821 620.701 24.8191 621.012 24.9915C621.324 25.1638 621.687 25.25 622.101 25.25C622.519 25.25 622.882 25.1638 623.19 24.9915C623.501 24.8191 623.742 24.5821 623.911 24.2805C624.083 23.9789 624.169 23.6342 624.169 23.2464V16.8182ZM628.653 16.8182H631.308L634.112 23.6591H634.231L637.035 16.8182H639.69V27H637.602V20.3729H637.517L634.883 26.9503H633.461L630.826 20.348H630.741V27H628.653V16.8182ZM642.024 16.8182H644.679L647.482 23.6591H647.602L650.406 16.8182H653.061V27H650.973V20.3729H650.888L648.253 26.9503H646.831L644.196 20.348H644.112V27H642.024V16.8182ZM655.394 27V16.8182H662.255V18.593H657.547V21.0192H661.902V22.794H657.547V25.2251H662.275V27H655.394ZM664.526 27V16.8182H668.544C669.312 16.8182 669.969 16.9557 670.512 17.2308C671.059 17.5026 671.475 17.8887 671.76 18.3892C672.049 18.8864 672.193 19.4714 672.193 20.1442C672.193 20.8203 672.047 21.402 671.755 21.8892C671.464 22.3731 671.041 22.7443 670.487 23.0028C669.937 23.2614 669.271 23.3906 668.489 23.3906H665.799V21.6605H668.141C668.552 21.6605 668.893 21.6042 669.165 21.4915C669.437 21.3788 669.639 21.2098 669.772 20.9844C669.907 20.759 669.975 20.4789 669.975 20.1442C669.975 19.8061 669.907 19.5211 669.772 19.2891C669.639 19.0571 669.435 18.8814 669.16 18.7621C668.888 18.6394 668.545 18.5781 668.131 18.5781H666.679V27H664.526ZM670.025 22.3665L672.556 27H670.179L667.703 22.3665H670.025ZM683.598 19.7464C683.558 19.3454 683.387 19.0339 683.086 18.8118C682.784 18.5897 682.375 18.4787 681.858 18.4787C681.506 18.4787 681.21 18.5284 680.968 18.6278C680.726 18.724 680.54 18.8582 680.411 19.0305C680.285 19.2029 680.222 19.3984 680.222 19.6172C680.215 19.7995 680.253 19.9586 680.336 20.0945C680.422 20.2304 680.54 20.348 680.689 20.4474C680.838 20.5436 681.011 20.6281 681.206 20.701C681.402 20.7706 681.611 20.8303 681.833 20.88L682.748 21.0987C683.192 21.1982 683.599 21.3307 683.971 21.4964C684.342 21.6622 684.663 21.866 684.935 22.108C685.207 22.3499 685.417 22.6349 685.566 22.9631C685.719 23.2912 685.797 23.6674 685.8 24.0916C685.797 24.7147 685.638 25.255 685.323 25.7124C685.011 26.1664 684.56 26.5194 683.971 26.7713C683.384 27.0199 682.676 27.1442 681.848 27.1442C681.026 27.1442 680.31 27.0182 679.7 26.7663C679.093 26.5144 678.619 26.1416 678.278 25.6477C677.94 25.1506 677.763 24.5357 677.746 23.8033H679.829C679.852 24.1446 679.95 24.4297 680.123 24.6584C680.298 24.8838 680.532 25.0545 680.824 25.1705C681.118 25.2831 681.452 25.3395 681.823 25.3395C682.187 25.3395 682.504 25.2865 682.772 25.1804C683.044 25.0743 683.255 24.9268 683.404 24.7379C683.553 24.549 683.627 24.3319 683.627 24.0866C683.627 23.858 683.56 23.6657 683.424 23.5099C683.291 23.3542 683.096 23.2216 682.837 23.1122C682.582 23.0028 682.269 22.9034 681.897 22.8139L680.789 22.5355C679.93 22.3267 679.252 22.0002 678.755 21.5561C678.258 21.112 678.011 20.5137 678.015 19.7614C678.011 19.1449 678.175 18.6063 678.507 18.1456C678.841 17.6849 679.301 17.3253 679.884 17.0668C680.467 16.8082 681.13 16.679 681.873 16.679C682.628 16.679 683.288 16.8082 683.851 17.0668C684.418 17.3253 684.859 17.6849 685.174 18.1456C685.489 18.6063 685.651 19.1399 685.661 19.7464H683.598ZM689.331 27H687.024L690.539 16.8182H693.313L696.823 27H694.516L691.966 19.1449H691.886L689.331 27ZM689.186 22.9979H694.635V24.6783H689.186V22.9979ZM698.608 27V16.8182H700.761V25.2251H705.126V27H698.608ZM707.112 27V16.8182H713.972V18.593H709.264V21.0192H713.619V22.794H709.264V25.2251H713.992V27H707.112ZM726.333 16.8182H728.486V23.4304C728.486 24.1728 728.309 24.8224 727.954 25.3793C727.603 25.9361 727.11 26.3703 726.477 26.6818C725.844 26.9901 725.107 27.1442 724.265 27.1442C723.42 27.1442 722.681 26.9901 722.048 26.6818C721.415 26.3703 720.922 25.9361 720.571 25.3793C720.22 24.8224 720.044 24.1728 720.044 23.4304V16.8182H722.197V23.2464C722.197 23.6342 722.281 23.9789 722.45 24.2805C722.623 24.5821 722.865 24.8191 723.176 24.9915C723.488 25.1638 723.851 25.25 724.265 25.25C724.683 25.25 725.046 25.1638 725.354 24.9915C725.665 24.8191 725.906 24.5821 726.075 24.2805C726.247 23.9789 726.333 23.6342 726.333 23.2464V16.8182ZM730.817 27V16.8182H734.834C735.606 16.8182 736.264 16.9657 736.808 17.2607C737.351 17.5523 737.766 17.9583 738.051 18.4787C738.339 18.9957 738.483 19.5923 738.483 20.2685C738.483 20.9446 738.337 21.5412 738.046 22.0582C737.754 22.5753 737.332 22.978 736.778 23.2663C736.228 23.5547 735.562 23.6989 734.779 23.6989H732.219V21.9737H734.431C734.846 21.9737 735.187 21.9025 735.456 21.7599C735.727 21.6141 735.93 21.4136 736.062 21.1584C736.198 20.8999 736.266 20.6032 736.266 20.2685C736.266 19.9304 736.198 19.6354 736.062 19.3835C735.93 19.1283 735.727 18.9311 735.456 18.7919C735.184 18.6494 734.839 18.5781 734.421 18.5781H732.97V27H730.817ZM743.854 18.593V16.8182H752.216V18.593H749.099V27H746.971V18.593H743.854ZM763.045 21.9091C763.045 23.0194 762.835 23.964 762.414 24.7429C761.996 25.5218 761.426 26.1167 760.703 26.5277C759.984 26.9354 759.175 27.1392 758.277 27.1392C757.372 27.1392 756.56 26.9337 755.841 26.5227C755.122 26.1117 754.554 25.5168 754.136 24.7379C753.718 23.959 753.509 23.0161 753.509 21.9091C753.509 20.7988 753.718 19.8542 754.136 19.0753C754.554 18.2964 755.122 17.7031 755.841 17.2955C756.56 16.8845 757.372 16.679 758.277 16.679C759.175 16.679 759.984 16.8845 760.703 17.2955C761.426 17.7031 761.996 18.2964 762.414 19.0753C762.835 19.8542 763.045 20.7988 763.045 21.9091ZM760.862 21.9091C760.862 21.1899 760.755 20.5833 760.539 20.0895C760.327 19.5956 760.027 19.2211 759.639 18.9659C759.252 18.7107 758.798 18.5831 758.277 18.5831C757.757 18.5831 757.303 18.7107 756.915 18.9659C756.527 19.2211 756.226 19.5956 756.01 20.0895C755.798 20.5833 755.692 21.1899 755.692 21.9091C755.692 22.6283 755.798 23.2348 756.01 23.7287C756.226 24.2225 756.527 24.5971 756.915 24.8523C757.303 25.1075 757.757 25.2351 758.277 25.2351C758.798 25.2351 759.252 25.1075 759.639 24.8523C760.027 24.5971 760.327 24.2225 760.539 23.7287C760.755 23.2348 760.862 22.6283 760.862 21.9091ZM772.659 27.1392C771.956 27.1392 771.33 27.0099 770.78 26.7514C770.233 26.4929 769.799 26.1366 769.477 25.6825C769.156 25.2285 768.988 24.7081 768.975 24.1214H771.063C771.086 24.5159 771.252 24.8357 771.56 25.081C771.868 25.3262 772.235 25.4489 772.659 25.4489C772.997 25.4489 773.295 25.3743 773.554 25.2251C773.816 25.0727 774.02 24.8622 774.165 24.5938C774.315 24.322 774.389 24.0104 774.389 23.6591C774.389 23.3011 774.313 22.9863 774.16 22.7145C774.011 22.4427 773.804 22.2306 773.539 22.0781C773.274 21.9257 772.971 21.8478 772.629 21.8445C772.331 21.8445 772.041 21.9058 771.759 22.0284C771.481 22.151 771.264 22.3184 771.108 22.5305L769.194 22.1875L769.676 16.8182H775.9V18.5781H771.451L771.187 21.1286H771.247C771.426 20.8767 771.696 20.6679 772.057 20.5021C772.419 20.3364 772.823 20.2536 773.27 20.2536C773.884 20.2536 774.431 20.3977 774.911 20.6861C775.392 20.9744 775.771 21.3705 776.05 21.8743C776.328 22.3748 776.466 22.9515 776.462 23.6044C776.466 24.2905 776.306 24.9003 775.985 25.4339C775.667 25.9643 775.221 26.3819 774.648 26.6868C774.078 26.9884 773.415 27.1392 772.659 27.1392ZM782.516 27.2237C781.661 27.2204 780.925 27.0099 780.308 26.5923C779.695 26.1747 779.223 25.5698 778.892 24.7777C778.563 23.9856 778.401 23.0327 778.404 21.919C778.404 20.8087 778.568 19.8625 778.897 19.0803C779.228 18.2981 779.7 17.7031 780.313 17.2955C780.93 16.8845 781.664 16.679 782.516 16.679C783.368 16.679 784.1 16.8845 784.713 17.2955C785.33 17.7064 785.804 18.303 786.135 19.0852C786.467 19.8641 786.631 20.8087 786.627 21.919C786.627 23.036 786.462 23.9905 786.13 24.7827C785.802 25.5748 785.331 26.1797 784.718 26.5973C784.105 27.0149 783.371 27.2237 782.516 27.2237ZM782.516 25.4389C783.099 25.4389 783.565 25.1456 783.913 24.5589C784.261 23.9723 784.433 23.0923 784.43 21.919C784.43 21.1468 784.35 20.5038 784.191 19.9901C784.035 19.4763 783.813 19.0902 783.525 18.8317C783.24 18.5732 782.904 18.4439 782.516 18.4439C781.936 18.4439 781.472 18.7339 781.124 19.3139C780.776 19.8939 780.6 20.7623 780.597 21.919C780.597 22.7012 780.675 23.3542 780.83 23.8778C780.99 24.3982 781.213 24.7893 781.502 25.0511C781.79 25.3097 782.128 25.4389 782.516 25.4389ZM794.295 25.0909V24.554C794.295 24.1463 794.382 23.7718 794.554 23.4304C794.73 23.0857 794.983 22.8106 795.315 22.6051C795.649 22.3963 796.057 22.2919 796.538 22.2919C797.025 22.2919 797.434 22.3946 797.766 22.6001C798.1 22.8056 798.352 23.0807 798.521 23.4254C798.694 23.7668 798.78 24.143 798.78 24.554V25.0909C798.78 25.4986 798.694 25.8748 798.521 26.2195C798.349 26.5608 798.095 26.8343 797.761 27.0398C797.426 27.2486 797.018 27.353 796.538 27.353C796.05 27.353 795.641 27.2486 795.31 27.0398C794.978 26.8343 794.726 26.5608 794.554 26.2195C794.382 25.8748 794.295 25.4986 794.295 25.0909ZM795.742 24.554V25.0909C795.742 25.3262 795.799 25.5483 795.911 25.7571C796.027 25.9659 796.236 26.0703 796.538 26.0703C796.839 26.0703 797.045 25.9676 797.154 25.7621C797.267 25.5566 797.323 25.3329 797.323 25.0909V24.554C797.323 24.312 797.27 24.0866 797.164 23.8778C797.058 23.669 796.849 23.5646 796.538 23.5646C796.239 23.5646 796.032 23.669 795.916 23.8778C795.8 24.0866 795.742 24.312 795.742 24.554ZM789.07 19.2642V18.7273C789.07 18.3163 789.158 17.9401 789.334 17.5987C789.509 17.254 789.763 16.9789 790.094 16.7734C790.429 16.5679 790.834 16.4652 791.308 16.4652C791.798 16.4652 792.209 16.5679 792.54 16.7734C792.872 16.9789 793.124 17.254 793.296 17.5987C793.469 17.9401 793.555 18.3163 793.555 18.7273V19.2642C793.555 19.6752 793.467 20.0514 793.291 20.3928C793.119 20.7341 792.865 21.0076 792.531 21.2131C792.199 21.4152 791.791 21.5163 791.308 21.5163C790.824 21.5163 790.414 21.4136 790.08 21.2081C789.748 20.9993 789.496 20.7259 789.324 20.3878C789.155 20.0464 789.07 19.6719 789.07 19.2642ZM790.527 18.7273V19.2642C790.527 19.5062 790.583 19.7299 790.696 19.9354C790.812 20.1409 791.016 20.2436 791.308 20.2436C791.612 20.2436 791.82 20.1409 791.929 19.9354C792.042 19.7299 792.098 19.5062 792.098 19.2642V18.7273C792.098 18.4853 792.045 18.2599 791.939 18.0511C791.833 17.8423 791.622 17.7379 791.308 17.7379C791.013 17.7379 790.809 17.844 790.696 18.0561C790.583 18.2682 790.527 18.492 790.527 18.7273ZM789.727 27L796.727 16.8182H798.029L791.029 27H789.727ZM814.53 21.9091C814.53 23.0194 814.32 23.964 813.899 24.7429C813.481 25.5218 812.911 26.1167 812.188 26.5277C811.469 26.9354 810.66 27.1392 809.762 27.1392C808.857 27.1392 808.045 26.9337 807.326 26.5227C806.607 26.1117 806.039 25.5168 805.621 24.7379C805.203 23.959 804.994 23.0161 804.994 21.9091C804.994 20.7988 805.203 19.8542 805.621 19.0753C806.039 18.2964 806.607 17.7031 807.326 17.2955C808.045 16.8845 808.857 16.679 809.762 16.679C810.66 16.679 811.469 16.8845 812.188 17.2955C812.911 17.7031 813.481 18.2964 813.899 19.0753C814.32 19.8542 814.53 20.7988 814.53 21.9091ZM812.347 21.9091C812.347 21.1899 812.24 20.5833 812.024 20.0895C811.812 19.5956 811.512 19.2211 811.124 18.9659C810.737 18.7107 810.283 18.5831 809.762 18.5831C809.242 18.5831 808.788 18.7107 808.4 18.9659C808.012 19.2211 807.711 19.5956 807.495 20.0895C807.283 20.5833 807.177 21.1899 807.177 21.9091C807.177 22.6283 807.283 23.2348 807.495 23.7287C807.711 24.2225 808.012 24.5971 808.4 24.8523C808.788 25.1075 809.242 25.2351 809.762 25.2351C810.283 25.2351 810.737 25.1075 811.124 24.8523C811.512 24.5971 811.812 24.2225 812.024 23.7287C812.24 23.2348 812.347 22.6283 812.347 21.9091ZM816.685 27V16.8182H823.426V18.593H818.837V21.0192H822.979V22.794H818.837V27H816.685ZM825.434 27V16.8182H832.176V18.593H827.587V21.0192H831.728V22.794H827.587V27H825.434Z" fill="#222222"/>
<circle opacity="0.5" cx="1380" cy="22" r="4" fill="white"/>
<circle opacity="0.5" cx="1400" cy="22" r="4" fill="white"/>
<circle opacity="0.5" cx="1420" cy="22" r="4" fill="white"/>
</svg>
