<svg width="168" height="20" viewBox="0 0 168 20" fill="none" xmlns="http://www.w3.org/2000/svg">
<path d="M2.95385 4.81818L5.41479 12.554H5.50925L7.97515 4.81818H10.3615L6.85158 15H4.07743L0.562513 4.81818H2.95385ZM14.2997 4.81818V15H12.147V4.81818H14.2997ZM16.6308 15V4.81818H23.4916V6.59304H18.7835V9.01918H23.1387V10.794H18.7835V13.2251H23.5115V15H16.6308ZM28.055 15L25.1417 4.81818H27.4932L29.1786 11.8928H29.2631L31.1225 4.81818H33.136L34.9904 11.9077H35.0799L36.7652 4.81818H39.1168L36.2035 15H34.1054L32.1665 8.34304H32.087L30.153 15H28.055ZM53.6129 8.38281H51.4353C51.3955 8.10109 51.3143 7.85085 51.1917 7.6321C51.0691 7.41004 50.9116 7.22112 50.7194 7.06534C50.5272 6.90956 50.3051 6.79025 50.0532 6.70739C49.8046 6.62453 49.5345 6.5831 49.2428 6.5831C48.7158 6.5831 48.2568 6.71402 47.8657 6.97585C47.4746 7.23437 47.1713 7.61222 46.9559 8.10938C46.7405 8.60322 46.6328 9.20312 46.6328 9.90909C46.6328 10.6349 46.7405 11.2448 46.9559 11.7386C47.1747 12.2325 47.4796 12.6054 47.8707 12.8572C48.2618 13.1091 48.7142 13.2351 49.2279 13.2351C49.5163 13.2351 49.7831 13.197 50.0284 13.1207C50.2769 13.0445 50.4973 12.9335 50.6896 12.7876C50.8818 12.6385 51.0409 12.4579 51.1668 12.2457C51.2961 12.0336 51.3856 11.7917 51.4353 11.5199L53.6129 11.5298C53.5565 11.9972 53.4157 12.4479 53.1903 12.8821C52.9682 13.313 52.6683 13.6991 52.2904 14.0405C51.9159 14.3786 51.4685 14.647 50.9481 14.8459C50.431 15.0414 49.8461 15.1392 49.1931 15.1392C48.285 15.1392 47.473 14.9337 46.757 14.5227C46.0444 14.1117 45.481 13.5168 45.0667 12.7379C44.6557 11.959 44.4502 11.0161 44.4502 9.90909C44.4502 8.79877 44.659 7.85417 45.0766 7.07528C45.4943 6.2964 46.061 5.70312 46.7769 5.29545C47.4928 4.88447 48.2982 4.67898 49.1931 4.67898C49.7831 4.67898 50.33 4.76184 50.8337 4.92756C51.3408 5.09328 51.79 5.33523 52.181 5.65341C52.5721 5.96828 52.8903 6.3544 53.1356 6.81179C53.3842 7.26918 53.5433 7.79285 53.6129 8.38281ZM65.0731 9.90909C65.0731 11.0194 64.8626 11.964 64.4417 12.7429C64.0241 13.5218 63.454 14.1167 62.7315 14.5277C62.0122 14.9354 61.2035 15.1392 60.3053 15.1392C59.4005 15.1392 58.5885 14.9337 57.8692 14.5227C57.15 14.1117 56.5816 13.5168 56.164 12.7379C55.7464 11.959 55.5376 11.0161 55.5376 9.90909C55.5376 8.79877 55.7464 7.85417 56.164 7.07528C56.5816 6.2964 57.15 5.70312 57.8692 5.29545C58.5885 4.88447 59.4005 4.67898 60.3053 4.67898C61.2035 4.67898 62.0122 4.88447 62.7315 5.29545C63.454 5.70312 64.0241 6.2964 64.4417 7.07528C64.8626 7.85417 65.0731 8.79877 65.0731 9.90909ZM62.8906 9.90909C62.8906 9.18987 62.7828 8.58333 62.5674 8.08949C62.3553 7.59564 62.0553 7.22112 61.6675 6.96591C61.2798 6.7107 60.8257 6.5831 60.3053 6.5831C59.785 6.5831 59.3309 6.7107 58.9431 6.96591C58.5553 7.22112 58.2537 7.59564 58.0383 8.08949C57.8262 8.58333 57.7201 9.18987 57.7201 9.90909C57.7201 10.6283 57.8262 11.2348 58.0383 11.7287C58.2537 12.2225 58.5553 12.5971 58.9431 12.8523C59.3309 13.1075 59.785 13.2351 60.3053 13.2351C60.8257 13.2351 61.2798 13.1075 61.6675 12.8523C62.0553 12.5971 62.3553 12.2225 62.5674 11.7287C62.7828 11.2348 62.8906 10.6283 62.8906 9.90909ZM67.2277 15V4.81818H69.3804V13.2251H73.7455V15H67.2277ZM75.7311 15V4.81818H77.8838V13.2251H82.2488V15H75.7311ZM84.2344 15V4.81818H91.0952V6.59304H86.3871V9.01918H90.7423V10.794H86.3871V13.2251H91.1151V15H84.2344ZM102.35 8.38281H100.173C100.133 8.10109 100.052 7.85085 99.9292 7.6321C99.8066 7.41004 99.6491 7.22112 99.4569 7.06534C99.2647 6.90956 99.0426 6.79025 98.7907 6.70739C98.5421 6.62453 98.272 6.5831 97.9803 6.5831C97.4533 6.5831 96.9943 6.71402 96.6032 6.97585C96.2121 7.23437 95.9088 7.61222 95.6934 8.10938C95.478 8.60322 95.3703 9.20312 95.3703 9.90909C95.3703 10.6349 95.478 11.2448 95.6934 11.7386C95.9122 12.2325 96.2171 12.6054 96.6082 12.8572C96.9993 13.1091 97.4517 13.2351 97.9654 13.2351C98.2538 13.2351 98.5206 13.197 98.7658 13.1207C99.0144 13.0445 99.2348 12.9335 99.4271 12.7876C99.6193 12.6385 99.7784 12.4579 99.9043 12.2457C100.034 12.0336 100.123 11.7917 100.173 11.5199L102.35 11.5298C102.294 11.9972 102.153 12.4479 101.928 12.8821C101.706 13.313 101.406 13.6991 101.028 14.0405C100.653 14.3786 100.206 14.647 99.6856 14.8459C99.1685 15.0414 98.5836 15.1392 97.9306 15.1392C97.0225 15.1392 96.2105 14.9337 95.4945 14.5227C94.7819 14.1117 94.2185 13.5168 93.8042 12.7379C93.3932 11.959 93.1877 11.0161 93.1877 9.90909C93.1877 8.79877 93.3965 7.85417 93.8141 7.07528C94.2318 6.2964 94.7985 5.70312 95.5144 5.29545C96.2303 4.88447 97.0357 4.67898 97.9306 4.67898C98.5206 4.67898 99.0675 4.76184 99.5712 4.92756C100.078 5.09328 100.527 5.33523 100.919 5.65341C101.31 5.96828 101.628 6.3544 101.873 6.81179C102.122 7.26918 102.281 7.79285 102.35 8.38281ZM104.066 6.59304V4.81818H112.428V6.59304H109.311V15H107.183V6.59304H104.066ZM116.518 4.81818V15H114.366V4.81818H116.518ZM128.206 9.90909C128.206 11.0194 127.996 11.964 127.575 12.7429C127.157 13.5218 126.587 14.1167 125.864 14.5277C125.145 14.9354 124.336 15.1392 123.438 15.1392C122.533 15.1392 121.721 14.9337 121.002 14.5227C120.283 14.1117 119.714 13.5168 119.297 12.7379C118.879 11.959 118.67 11.0161 118.67 9.90909C118.67 8.79877 118.879 7.85417 119.297 7.07528C119.714 6.2964 120.283 5.70312 121.002 5.29545C121.721 4.88447 122.533 4.67898 123.438 4.67898C124.336 4.67898 125.145 4.88447 125.864 5.29545C126.587 5.70312 127.157 6.2964 127.575 7.07528C127.996 7.85417 128.206 8.79877 128.206 9.90909ZM126.023 9.90909C126.023 9.18987 125.916 8.58333 125.7 8.08949C125.488 7.59564 125.188 7.22112 124.8 6.96591C124.413 6.7107 123.959 6.5831 123.438 6.5831C122.918 6.5831 122.464 6.7107 122.076 6.96591C121.688 7.22112 121.387 7.59564 121.171 8.08949C120.959 8.58333 120.853 9.18987 120.853 9.90909C120.853 10.6283 120.959 11.2348 121.171 11.7287C121.387 12.2225 121.688 12.5971 122.076 12.8523C122.464 13.1075 122.918 13.2351 123.438 13.2351C123.959 13.2351 124.413 13.1075 124.8 12.8523C125.188 12.5971 125.488 12.2225 125.7 11.7287C125.916 11.2348 126.023 10.6283 126.023 9.90909ZM138.877 4.81818V15H137.018L132.588 8.59162H132.513V15H130.361V4.81818H132.25L136.645 11.2216H136.734V4.81818H138.877Z" fill="white"/>
<path d="M163.625 5V13.125C163.625 13.2908 163.559 13.4497 163.442 13.5669C163.325 13.6842 163.166 13.75 163 13.75C162.834 13.75 162.675 13.6842 162.558 13.5669C162.441 13.4497 162.375 13.2908 162.375 13.125V6.50859L153.442 15.4422C153.325 15.5595 153.166 15.6253 153 15.6253C152.834 15.6253 152.675 15.5595 152.558 15.4422C152.441 15.3249 152.375 15.1659 152.375 15C152.375 14.8341 152.441 14.6751 152.558 14.5578L161.491 5.625H154.875C154.709 5.625 154.55 5.55915 154.433 5.44194C154.316 5.32473 154.25 5.16576 154.25 5C154.25 4.83424 154.316 4.67527 154.433 4.55806C154.55 4.44085 154.709 4.375 154.875 4.375H163C163.166 4.375 163.325 4.44085 163.442 4.55806C163.559 4.67527 163.625 4.83424 163.625 5Z" fill="white"/>
</svg>
